<svg xmlns="http://www.w3.org/2000/svg" width="1200" height="1320" viewBox="0 0 1200 1320">
<rect width="1200" height="1320" fill="#f5f7fc"/>
<g font-family="sans-serif" fill="#24364d" text-anchor="middle">
<text x="600" y="58" font-size="32" font-weight="bold">N5D 灯环 · 正面顺时针位置</text>
<text x="600" y="96" font-size="18">C = 彩灯物理位置　W = 白灯物理位置　组 / ch = 原始驱动编号</text>
<circle cx="600" cy="635" r="376" fill="none" stroke="#dce3ef" stroke-width="23"/>
<text x="600.0" y="135.0" font-size="18" fill="#6e7e91">12 点 / 起点</text>
<text x="1100.0" y="635.0" font-size="18" fill="#6e7e91">3 点</text>
<text x="600.0" y="1135.0" font-size="18" fill="#6e7e91">6 点</text>
<text x="100.0" y="635.0" font-size="18" fill="#6e7e91">9 点</text>
<circle cx="600.00" cy="259.00" r="12" fill="#00a6b8" stroke="#00838f" stroke-width="2"/>
<text x="600.00" y="313.00" font-size="18" font-weight="bold">C00</text><text x="600.00" y="333.00" font-size="15" fill="#6e7e91">组02</text>
<circle cx="649.08" cy="262.22" r="12" fill="#ffffff" stroke="#66768e" stroke-width="2"/>
<text x="657.04" y="198.74" font-size="18" font-weight="bold">W00</text><text x="657.04" y="218.74" font-size="15" fill="#6e7e91">ch78</text>
<circle cx="697.32" cy="271.81" r="12" fill="#00a6b8" stroke="#00838f" stroke-width="2"/>
<text x="682.56" y="323.87" font-size="18" font-weight="bold">C01</text><text x="682.56" y="343.87" font-size="15" fill="#6e7e91">组21</text>
<circle cx="743.89" cy="287.62" r="12" fill="#ffffff" stroke="#66768e" stroke-width="2"/>
<text x="767.23" y="228.26" font-size="18" font-weight="bold">W01</text><text x="767.23" y="248.26" font-size="15" fill="#6e7e91">ch77</text>
<circle cx="788.00" cy="309.37" r="12" fill="#00a6b8" stroke="#00838f" stroke-width="2"/>
<text x="759.50" y="355.74" font-size="18" font-weight="bold">C02</text><text x="759.50" y="375.74" font-size="15" fill="#6e7e91">组17</text>
<circle cx="828.89" cy="336.70" r="12" fill="#ffffff" stroke="#66768e" stroke-width="2"/>
<text x="866.03" y="285.30" font-size="18" font-weight="bold">W02</text><text x="866.03" y="305.30" font-size="15" fill="#6e7e91">ch89</text>
<circle cx="865.87" cy="369.13" r="12" fill="#00a6b8" stroke="#00838f" stroke-width="2"/>
<text x="825.57" y="406.43" font-size="18" font-weight="bold">C03</text><text x="825.57" y="426.43" font-size="15" fill="#6e7e91">组13</text>
<circle cx="898.30" cy="406.11" r="12" fill="#ffffff" stroke="#66768e" stroke-width="2"/>
<text x="946.70" y="365.97" font-size="18" font-weight="bold">W03</text><text x="946.70" y="385.97" font-size="15" fill="#6e7e91">ch76</text>
<circle cx="925.63" cy="447.00" r="12" fill="#00a6b8" stroke="#00838f" stroke-width="2"/>
<text x="876.26" y="472.50" font-size="18" font-weight="bold">C04</text><text x="876.26" y="492.50" font-size="15" fill="#6e7e91">组09</text>
<circle cx="947.38" cy="491.11" r="12" fill="#ffffff" stroke="#66768e" stroke-width="2"/>
<text x="1003.74" y="464.77" font-size="18" font-weight="bold">W04</text><text x="1003.74" y="484.77" font-size="15" fill="#6e7e91">ch88</text>
<circle cx="963.19" cy="537.68" r="12" fill="#00a6b8" stroke="#00838f" stroke-width="2"/>
<text x="908.13" y="549.44" font-size="18" font-weight="bold">C05</text><text x="908.13" y="569.44" font-size="15" fill="#6e7e91">组05</text>
<circle cx="972.78" cy="585.92" r="12" fill="#ffffff" stroke="#66768e" stroke-width="2"/>
<text x="1033.26" y="574.96" font-size="18" font-weight="bold">W05</text><text x="1033.26" y="594.96" font-size="15" fill="#6e7e91">ch75</text>
<circle cx="976.00" cy="635.00" r="12" fill="#00a6b8" stroke="#00838f" stroke-width="2"/>
<text x="919.00" y="632.00" font-size="18" font-weight="bold">C06</text><text x="919.00" y="652.00" font-size="15" fill="#6e7e91">组01</text>
<circle cx="972.78" cy="684.08" r="12" fill="#ffffff" stroke="#66768e" stroke-width="2"/>
<text x="1033.26" y="689.04" font-size="18" font-weight="bold">W06</text><text x="1033.26" y="709.04" font-size="15" fill="#6e7e91">ch87</text>
<circle cx="963.19" cy="732.32" r="12" fill="#00a6b8" stroke="#00838f" stroke-width="2"/>
<text x="908.13" y="714.56" font-size="18" font-weight="bold">C07</text><text x="908.13" y="734.56" font-size="15" fill="#6e7e91">组04</text>
<circle cx="947.38" cy="778.89" r="12" fill="#ffffff" stroke="#66768e" stroke-width="2"/>
<text x="1003.74" y="799.23" font-size="18" font-weight="bold">W07</text><text x="1003.74" y="819.23" font-size="15" fill="#6e7e91">ch84</text>
<circle cx="925.63" cy="823.00" r="12" fill="#00a6b8" stroke="#00838f" stroke-width="2"/>
<text x="876.26" y="791.50" font-size="18" font-weight="bold">C08</text><text x="876.26" y="811.50" font-size="15" fill="#6e7e91">组08</text>
<circle cx="898.30" cy="863.89" r="12" fill="#ffffff" stroke="#66768e" stroke-width="2"/>
<text x="946.70" y="898.03" font-size="18" font-weight="bold">W08</text><text x="946.70" y="918.03" font-size="15" fill="#6e7e91">ch72</text>
<circle cx="865.87" cy="900.87" r="12" fill="#00a6b8" stroke="#00838f" stroke-width="2"/>
<text x="825.57" y="857.57" font-size="18" font-weight="bold">C09</text><text x="825.57" y="877.57" font-size="15" fill="#6e7e91">组12</text>
<circle cx="828.89" cy="933.30" r="12" fill="#ffffff" stroke="#66768e" stroke-width="2"/>
<text x="866.03" y="978.70" font-size="18" font-weight="bold">W09</text><text x="866.03" y="998.70" font-size="15" fill="#6e7e91">ch73</text>
<circle cx="788.00" cy="960.63" r="12" fill="#00a6b8" stroke="#00838f" stroke-width="2"/>
<text x="759.50" y="908.26" font-size="18" font-weight="bold">C10</text><text x="759.50" y="928.26" font-size="15" fill="#6e7e91">组16</text>
<circle cx="743.89" cy="982.38" r="12" fill="#ffffff" stroke="#66768e" stroke-width="2"/>
<text x="767.23" y="1035.74" font-size="18" font-weight="bold">W10</text><text x="767.23" y="1055.74" font-size="15" fill="#6e7e91">ch85</text>
<circle cx="697.32" cy="998.19" r="12" fill="#00a6b8" stroke="#00838f" stroke-width="2"/>
<text x="682.56" y="940.13" font-size="18" font-weight="bold">C11</text><text x="682.56" y="960.13" font-size="15" fill="#6e7e91">组20</text>
<circle cx="649.08" cy="1007.78" r="12" fill="#ffffff" stroke="#66768e" stroke-width="2"/>
<text x="657.04" y="1065.26" font-size="18" font-weight="bold">W11</text><text x="657.04" y="1085.26" font-size="15" fill="#6e7e91">ch74</text>
<circle cx="600.00" cy="1011.00" r="12" fill="#00a6b8" stroke="#00838f" stroke-width="2"/>
<text x="600.00" y="951.00" font-size="18" font-weight="bold">C12</text><text x="600.00" y="971.00" font-size="15" fill="#6e7e91">组00</text>
<circle cx="550.92" cy="1007.78" r="12" fill="#ffffff" stroke="#66768e" stroke-width="2"/>
<text x="542.96" y="1065.26" font-size="18" font-weight="bold">W12</text><text x="542.96" y="1085.26" font-size="15" fill="#6e7e91">ch86</text>
<circle cx="502.68" cy="998.19" r="12" fill="#00a6b8" stroke="#00838f" stroke-width="2"/>
<text x="517.44" y="940.13" font-size="18" font-weight="bold">C13</text><text x="517.44" y="960.13" font-size="15" fill="#6e7e91">组23</text>
<circle cx="456.11" cy="982.38" r="12" fill="#ffffff" stroke="#66768e" stroke-width="2"/>
<text x="432.77" y="1035.74" font-size="18" font-weight="bold">W13</text><text x="432.77" y="1055.74" font-size="15" fill="#6e7e91">ch83</text>
<circle cx="412.00" cy="960.63" r="12" fill="#00a6b8" stroke="#00838f" stroke-width="2"/>
<text x="440.50" y="908.26" font-size="18" font-weight="bold">C14</text><text x="440.50" y="928.26" font-size="15" fill="#6e7e91">组19</text>
<circle cx="371.11" cy="933.30" r="12" fill="#ffffff" stroke="#66768e" stroke-width="2"/>
<text x="333.97" y="978.70" font-size="18" font-weight="bold">W14</text><text x="333.97" y="998.70" font-size="15" fill="#6e7e91">ch95</text>
<circle cx="334.13" cy="900.87" r="12" fill="#00a6b8" stroke="#00838f" stroke-width="2"/>
<text x="374.43" y="857.57" font-size="18" font-weight="bold">C15</text><text x="374.43" y="877.57" font-size="15" fill="#6e7e91">组15</text>
<circle cx="301.70" cy="863.89" r="12" fill="#ffffff" stroke="#66768e" stroke-width="2"/>
<text x="253.30" y="898.03" font-size="18" font-weight="bold">W15</text><text x="253.30" y="918.03" font-size="15" fill="#6e7e91">ch82</text>
<circle cx="274.37" cy="823.00" r="12" fill="#00a6b8" stroke="#00838f" stroke-width="2"/>
<text x="323.74" y="791.50" font-size="18" font-weight="bold">C16</text><text x="323.74" y="811.50" font-size="15" fill="#6e7e91">组11</text>
<circle cx="252.62" cy="778.89" r="12" fill="#ffffff" stroke="#66768e" stroke-width="2"/>
<text x="196.26" y="799.23" font-size="18" font-weight="bold">W16</text><text x="196.26" y="819.23" font-size="15" fill="#6e7e91">ch81</text>
<circle cx="236.81" cy="732.32" r="12" fill="#00a6b8" stroke="#00838f" stroke-width="2"/>
<text x="291.87" y="714.56" font-size="18" font-weight="bold">C17</text><text x="291.87" y="734.56" font-size="15" fill="#6e7e91">组07</text>
<circle cx="227.22" cy="684.08" r="12" fill="#ffffff" stroke="#66768e" stroke-width="2"/>
<text x="166.74" y="689.04" font-size="18" font-weight="bold">W17</text><text x="166.74" y="709.04" font-size="15" fill="#6e7e91">ch94</text>
<circle cx="224.00" cy="635.00" r="12" fill="#00a6b8" stroke="#00838f" stroke-width="2"/>
<text x="281.00" y="632.00" font-size="18" font-weight="bold">C18</text><text x="281.00" y="652.00" font-size="15" fill="#6e7e91">组03</text>
<circle cx="227.22" cy="585.92" r="12" fill="#ffffff" stroke="#66768e" stroke-width="2"/>
<text x="166.74" y="574.96" font-size="18" font-weight="bold">W18</text><text x="166.74" y="594.96" font-size="15" fill="#6e7e91">ch93</text>
<circle cx="236.81" cy="537.68" r="12" fill="#00a6b8" stroke="#00838f" stroke-width="2"/>
<text x="291.87" y="549.44" font-size="18" font-weight="bold">C19</text><text x="291.87" y="569.44" font-size="15" fill="#6e7e91">组22</text>
<circle cx="252.62" cy="491.11" r="12" fill="#ffffff" stroke="#66768e" stroke-width="2"/>
<text x="196.26" y="464.77" font-size="18" font-weight="bold">W19</text><text x="196.26" y="484.77" font-size="15" fill="#6e7e91">ch80</text>
<circle cx="274.37" cy="447.00" r="12" fill="#00a6b8" stroke="#00838f" stroke-width="2"/>
<text x="323.74" y="472.50" font-size="18" font-weight="bold">C20</text><text x="323.74" y="492.50" font-size="15" fill="#6e7e91">组18</text>
<circle cx="301.70" cy="406.11" r="12" fill="#ffffff" stroke="#66768e" stroke-width="2"/>
<text x="253.30" y="365.97" font-size="18" font-weight="bold">W20</text><text x="253.30" y="385.97" font-size="15" fill="#6e7e91">ch92</text>
<circle cx="334.13" cy="369.13" r="12" fill="#00a6b8" stroke="#00838f" stroke-width="2"/>
<text x="374.43" y="406.43" font-size="18" font-weight="bold">C21</text><text x="374.43" y="426.43" font-size="15" fill="#6e7e91">组14</text>
<circle cx="371.11" cy="336.70" r="12" fill="#ffffff" stroke="#66768e" stroke-width="2"/>
<text x="333.97" y="285.30" font-size="18" font-weight="bold">W21</text><text x="333.97" y="305.30" font-size="15" fill="#6e7e91">ch91</text>
<circle cx="412.00" cy="309.37" r="12" fill="#00a6b8" stroke="#00838f" stroke-width="2"/>
<text x="440.50" y="355.74" font-size="18" font-weight="bold">C22</text><text x="440.50" y="375.74" font-size="15" fill="#6e7e91">组10</text>
<circle cx="456.11" cy="287.62" r="12" fill="#ffffff" stroke="#66768e" stroke-width="2"/>
<text x="432.77" y="228.26" font-size="18" font-weight="bold">W22</text><text x="432.77" y="248.26" font-size="15" fill="#6e7e91">ch79</text>
<circle cx="502.68" cy="271.81" r="12" fill="#00a6b8" stroke="#00838f" stroke-width="2"/>
<text x="517.44" y="323.87" font-size="18" font-weight="bold">C23</text><text x="517.44" y="343.87" font-size="15" fill="#6e7e91">组06</text>
<circle cx="550.92" cy="262.22" r="12" fill="#ffffff" stroke="#66768e" stroke-width="2"/>
<text x="542.96" y="198.74" font-size="18" font-weight="bold">W23</text><text x="542.96" y="218.74" font-size="15" fill="#6e7e91">ch90</text>
<circle cx="600" cy="635" r="115" fill="#e9edf5"/>
<text x="600" y="623" font-size="30" font-weight="bold">Logo</text>
<text x="600" y="660" font-size="18">独立亮度 · 不占灯环通道</text>
<text x="600" y="1165" font-size="19">彩灯：C0 顶部起，顺时针每格约 15°</text>
<text x="600" y="1199" font-size="19">白灯：Wi 位于 Ci 与 C(i+1) 之间，约偏移 7.5°</text>
<text x="600" y="1240" font-size="16" fill="#6e7e91">位置为视频定位与等间距模型；仅验证指定 N5D 测试机</text>
<text x="600" y="1270" font-size="16" fill="#6e7e91">映射 ID：n5d-clockwise-2026-10</text>
</g></svg>